<svg width="20" height="19" viewBox="0 0 20 19" fill="none" xmlns="http://www.w3.org/2000/svg">
<path fill-rule="evenodd" clip-rule="evenodd" d="M18.512 18.013H1.48799C0.671986 18.013 0.0109863 17.434 0.0109863 16.72V1.282C0.0109863 0.568998 0.671986 -0.0100021 1.48799 -0.0100021H18.512C19.327 -0.0100021 19.988 0.568998 19.988 1.282V16.72C19.988 17.434 19.327 18.013 18.512 18.013ZM3.47299 15.044H6.41499V6.907H3.47299V15.044ZM4.96399 2.985C3.95699 2.985 3.29999 3.592 3.29999 4.391C3.29999 5.171 3.93799 5.797 4.92499 5.797H4.94399C5.96999 5.797 6.60799 5.171 6.60799 4.391C6.58999 3.592 5.96999 2.985 4.96399 2.985ZM17.023 10.379C17.023 7.879 15.571 6.716 13.636 6.716C12.074 6.716 11.376 7.505 10.985 8.06V6.907H8.04299C8.08199 7.671 8.04299 15.044 8.04299 15.044H10.985V10.5C10.985 10.258 11.004 10.014 11.082 9.841C11.294 9.355 11.779 8.852 12.591 8.852C13.656 8.852 14.081 9.598 14.081 10.692V15.044H17.023V10.379ZM10.965 8.087C10.971 8.078 10.979 8.069 10.985 8.06V8.087H10.965Z" fill="white"/>
</svg>
